<?xml version="1.0" encoding="utf-8"?>
<!-- Generator: Adobe Illustrator 22.1.0, SVG Export Plug-In . SVG Version: 6.00 Build 0)  -->
<svg version="1.1" id="Layer_1" xmlns="http://www.w3.org/2000/svg" xmlns:xlink="http://www.w3.org/1999/xlink" x="0px" y="0px"
	 viewBox="0 0 200.813 57.531" style="enable-background:new 0 0 200.813 57.531;" xml:space="preserve">
<style type="text/css">
	.st0{fill:url(#SVGID_1_);}
</style>
<g>
	
		<linearGradient id="SVGID_1_" gradientUnits="userSpaceOnUse" x1="6840.667" y1="-148.5407" x2="7104.8203" y2="-148.5407" gradientTransform="matrix(1 0 0 -1 -6876.0688 -119.7752)">
		<stop  offset="0" style="stop-color:#0663A6"/>
		<stop  offset="0.5165" style="stop-color:#74CAEB"/>
		<stop  offset="1" style="stop-color:#5EC1C9"/>
	</linearGradient>
	<path class="st0" d="M144.039,57.289c-0.18,0-0.281-0.12-0.241-0.3l1.684-9.259c0.021-0.16,0.12-0.241,0.241-0.3
		c1.222-0.501,2.584-0.781,3.928-0.781c2.766,0,4.229,1.824,3.728,4.53l-1.041,5.853c-0.021,0.16-0.12,0.26-0.3,0.26h-1.745
		c-0.18,0-0.281-0.12-0.26-0.3l1.041-5.993c0.321-1.663-0.34-2.326-1.663-2.326c-0.701,0-1.383,0.161-1.843,0.341l-1.483,8.017
		c-0.021,0.18-0.12,0.26-0.3,0.26h-1.744v-0.002H144.039z M157.782,57.531c-2.265,0-4.11-1.303-3.668-3.688
		c0.361-1.984,2.244-2.866,4.57-2.866c0.701,0,1.463,0.1,2.064,0.221l0.1-0.622c0.22-1.242-0.161-1.884-1.644-1.884
		c-1.041,0-1.903,0.3-2.584,0.682c-0.161,0.08-0.321,0.04-0.382-0.14l-0.52-1.243c-0.061-0.18-0.061-0.281,0.06-0.361
		c1.002-0.622,2.324-0.982,3.828-0.982c2.545,0,3.969,1.623,3.508,4.188l-1.002,5.693c-0.021,0.16-0.1,0.239-0.241,0.3
		C160.788,57.209,159.285,57.531,157.782,57.531z M158.003,55.547c0.72,0,1.502-0.141,2.024-0.241l0.38-2.285
		c-0.501-0.1-1.203-0.16-1.763-0.16c-1.342,0-2.105,0.422-2.244,1.203C156.198,55.105,156.919,55.547,158.003,55.547z
		 M167.518,49.052l-0.842,4.791c-0.18,1.102,0.18,1.663,1.082,1.663h0.682c0.18-0.021,0.281,0.08,0.241,0.281l-0.241,1.423
		c-0.021,0.16-0.12,0.26-0.281,0.281c-0.241,0.021-0.561,0.04-0.762,0.04c-1.904,0-3.488-1.123-3.007-3.869l1.624-9.02
		c0.021-0.16,0.12-0.26,0.3-0.26h1.402c0.181,0,0.3,0.1,0.282,0.281l-0.161,2.406h1.845c0.2,0,0.281,0.119,0.239,0.3l-0.239,1.423
		c-0.021,0.161-0.141,0.26-0.3,0.26C169.383,49.052,167.518,49.052,167.518,49.052z M179.499,46.887c0.2,0,0.282,0.141,0.241,0.321
		l-1.684,9.259c-0.021,0.141-0.1,0.241-0.241,0.3c-1.202,0.462-2.584,0.762-3.887,0.762c-2.746,0-4.19-1.824-3.688-4.53l1.043-5.852
		c0.019-0.141,0.14-0.261,0.3-0.261h1.763c0.201,0,0.281,0.141,0.239,0.321l-1.062,5.974c-0.321,1.663,0.361,2.324,1.643,2.324
		c0.682,0,1.364-0.16,1.804-0.321l1.463-8.036c0.021-0.161,0.141-0.261,0.3-0.261H179.499L179.499,46.887z M180.236,57.289
		c-0.18,0-0.281-0.12-0.261-0.3l1.644-9.28c0.021-0.14,0.1-0.239,0.239-0.3c1.102-0.501,2.305-0.762,3.447-0.762
		c0.601,0,1.223,0.06,1.845,0.16c0.18,0.04,0.26,0.161,0.239,0.341l-0.26,1.442c-0.021,0.18-0.141,0.261-0.341,0.241
		c-0.42-0.061-0.982-0.1-1.563-0.1c-0.621,0-1.182,0.12-1.543,0.281l-1.403,8.017c-0.021,0.16-0.12,0.26-0.3,0.26H180.236
		L180.236,57.289z M190.073,57.531c-2.265,0-4.108-1.303-3.668-3.688c0.361-1.984,2.246-2.866,4.57-2.866
		c0.701,0,1.463,0.1,2.064,0.221l0.101-0.622c0.221-1.242-0.16-1.884-1.643-1.884c-1.043,0-1.904,0.3-2.586,0.682
		c-0.16,0.08-0.321,0.04-0.38-0.14l-0.521-1.243c-0.06-0.18-0.06-0.281,0.061-0.361c1.001-0.622,2.324-0.982,3.828-0.982
		c2.545,0,3.969,1.623,3.507,4.188l-1.002,5.693c-0.019,0.16-0.1,0.239-0.239,0.3C193.079,57.209,191.576,57.531,190.073,57.531z
		 M190.294,55.547c0.722,0,1.503-0.141,2.024-0.241l0.382-2.285c-0.501-0.1-1.203-0.16-1.763-0.16c-1.344,0-2.105,0.422-2.246,1.203
		C188.489,55.105,189.211,55.547,190.294,55.547z M199.287,57.531c-2.044,0-3.046-1.503-2.565-4.149l1.784-10.161
		c0.021-0.161,0.141-0.261,0.3-0.261h1.744c0.199,0,0.281,0.12,0.26,0.3l-1.804,10.282c-0.221,1.182-0.021,1.923,0.781,1.923
		c0.201,0,0.441,0,0.642-0.019c0.201-0.021,0.319,0.06,0.281,0.281l-0.26,1.463c-0.021,0.16-0.12,0.26-0.282,0.281
		C199.889,57.51,199.589,57.531,199.287,57.531z M26.126,1.656h-5.831c-0.502,0-0.805,0.302-0.903,0.803l-1.658,9.348
		c-1.259-0.655-3.017-1.054-4.875-1.054c-5.978,0-10.554,4.07-11.609,10.048l-1.053,5.78c-1.157,6.685,2.862,11.661,10.15,11.661
		c3.315,0,7.186-0.706,10.048-1.86c0.457-0.152,0.706-0.452,0.757-0.905l5.78-32.869C27.032,2.056,26.73,1.656,26.126,1.656z
		 M14.366,31.006c-0.804,0.35-2.11,0.553-3.318,0.553c-2.713,0-3.819-1.26-3.215-4.423l0.956-5.377
		c0.55-3.067,2.109-4.574,4.522-4.574c1.256,0,2.512,0.301,3.316,0.853L14.366,31.006z M40.345,10.753
		c-6.984,0-11.909,3.768-13.015,9.851l-1.057,6.231c-1.158,6.383,2.916,11.409,9.65,11.409c7.388,0,11.959-3.619,13.117-9.952
		l1.157-6.333C51.252,15.827,47.23,10.753,40.345,10.753z M42.556,21.457l-1.155,6.433c-0.404,2.36-2.01,3.767-4.625,3.767
		c-2.361,0-3.417-1.606-2.965-4.068l1.155-6.484c0.402-2.263,2.113-3.77,4.523-3.77C41.904,17.335,42.957,19.197,42.556,21.457z
		 M77.434,12.359l-4.073,22.968c-0.099,0.453-0.35,0.754-0.754,0.903c-3.116,1.257-6.938,1.962-10.106,1.962
		c-7.485,0-10.902-4.777-9.645-11.863l2.511-14.124c0.103-0.5,0.402-0.751,0.906-0.751h5.829c0.555,0,0.854,0.351,0.754,0.903
		l-2.512,14.726c-0.55,3.115,0.556,4.572,3.065,4.572c1.205,0,2.413-0.25,3.117-0.553l3.367-18.897
		c0.05-0.5,0.402-0.751,0.902-0.751h5.884C77.282,11.456,77.533,11.807,77.434,12.359z M94.418,17.89
		c-0.855-0.154-1.86-0.252-2.918-0.252c-1.307,0-2.413,0.252-3.266,0.603l-3.266,18.545c-0.101,0.5-0.404,0.803-0.903,0.803h-5.831
		c-0.604,0-0.903-0.402-0.805-0.955L81.4,13.817c0.103-0.452,0.353-0.755,0.754-0.953c2.912-1.357,6.129-2.11,9.299-2.11
		c1.355,0,2.708,0.149,4.169,0.452c0.553,0.099,0.802,0.502,0.703,1.002l-0.906,4.925C95.371,17.686,94.968,17.939,94.418,17.89z
		 M109.091,10.753c-6.986,0-11.909,3.768-13.019,9.851l-1.054,6.231c-1.155,6.383,2.914,11.409,9.649,11.409
		c7.387,0,11.959-3.619,13.114-9.952l1.16-6.333C119.995,15.827,115.975,10.753,109.091,10.753z M111.3,21.457l-1.153,6.433
		c-0.402,2.36-2.011,3.767-4.625,3.767c-2.363,0-3.417-1.606-2.966-4.068l1.16-6.484c0.398-2.263,2.11-3.77,4.522-3.77
		C110.647,17.335,111.703,19.197,111.3,21.457z M145.119,12.863c-2.662-1.206-6.128-2.11-10.1-2.11
		c-6.484,0-11.811,3.112-13.067,10.201l-0.854,4.774c-1.206,6.633,2.262,11.157,8.794,11.157c1.408,0,3.068-0.3,4.474-0.755
		c-0.652,3.415-2.462,4.877-5.478,4.877c-2.262,0-4.172-0.657-5.58-1.561c-0.451-0.35-0.854-0.301-1.205,0.152l-3.065,3.92
		c-0.35,0.452-0.35,0.854,0.101,1.205c2.363,2.01,5.024,3.016,9.097,3.016c8.744,0,12.213-3.619,13.77-12.615l3.668-21.157
		C145.774,13.466,145.57,13.114,145.119,12.863z M135.42,29.446c-0.752,0.552-2.212,0.958-3.667,0.958
		c-2.463,0-3.569-1.209-3.067-4.022l0.906-5.175c0.452-2.616,2.262-3.821,4.773-3.821c1.157,0,2.363,0.203,3.016,0.603
		L135.42,29.446z M159.943,10.753c-4.071,0-7.84,0.903-10.252,2.361c-0.303,0.2-0.303,0.555-0.152,1.004l1.558,4.122
		c0.201,0.552,0.604,0.653,1.157,0.404c1.508-0.704,3.768-1.157,5.981-1.157c3.167,0,3.869,1.355,3.415,3.819l-0.099,0.805
		c-1.256-0.251-2.764-0.402-4.273-0.402c-6.433,0-10.554,2.161-11.406,7.036c-1.007,5.477,2.56,9.499,9.596,9.499
		c3.871,0,7.589-0.754,10.454-1.76c0.451-0.151,0.652-0.504,0.754-0.955l2.263-12.713C170.299,15.275,166.778,10.753,159.943,10.753
		z M159.893,31.559c-0.905,0.2-2.309,0.401-3.468,0.401c-2.209,0-3.417-0.905-3.065-2.815c0.252-1.506,1.558-2.31,4.018-2.31
		c1.109,0,2.263,0.148,3.221,0.349L159.893,31.559z M168.942,1.103l-6.688,6.633c-0.298,0.353-0.603,0.453-1.054,0.453h-3.92
		c-0.751,0-0.953-0.504-0.5-1.058l5.377-6.632C162.456,0.147,162.809,0,163.261,0h5.23C169.241-0.001,169.489,0.551,168.942,1.103z
		 M180.496,18.792c-0.303,1.509,1.308,1.959,3.719,2.514c3.871,0.854,8.696,3.268,7.64,9.148c-1.007,5.327-5.481,7.79-11.761,7.79
		c-4.169,0-7.437-1.107-10.202-3.367c-0.453-0.355-0.453-0.804-0.149-1.206l2.865-3.922c0.351-0.451,0.751-0.502,1.205-0.2
		c1.96,1.459,4.167,2.159,6.532,2.159c2.412,0,3.619-0.752,3.869-1.906c0.353-1.559-1.406-1.964-3.418-2.414
		c-4.923-1.005-8.843-3.969-7.74-9.399c1.058-5.076,5.278-7.235,11.358-7.235c3.469,0,6.133,0.754,8.846,2.308
		c0.505,0.303,0.555,0.755,0.2,1.21l-2.966,3.969c-0.298,0.453-0.701,0.502-1.206,0.251c-1.556-0.903-3.465-1.359-5.575-1.359
		C181.851,17.132,180.697,17.538,180.496,18.792z"/>
</g>
</svg>
