<?xml version="1.0" encoding="UTF-8"?>
<svg id="Camada_2" xmlns="http://www.w3.org/2000/svg" viewBox="0 0 380.17 222.79">
  <defs>
    <style>
      .cls-1 {
        fill: #059ea5;
      }

      .cls-2 {
        fill: #f47a20;
      }
    </style>
  </defs>
  <g id="Camada_1-2" data-name="Camada_1">
    <g>
      <g>
        <path class="cls-1" d="M252.74,32.01l.51-32.01-27.37,16.61c-4.96,3.06-8.41,8.58-8.51,14.84.56,23.47,34.07,24.01,35.38.56Z"/>
        <path class="cls-1" d="M124.99,54.26c-8.56-4.77-19.41-1.79-24.24,6.66l-33.55,58.7-33.92-60.07c-4.83-8.55-15.68-11.57-24.24-6.74-8.56,4.83-11.58,15.68-6.74,24.24l48.58,86.03c1.51,3.23,4.02,6.04,7.39,7.92,2.77,1.54,5.77,2.27,8.73,2.27h.03c1.13,0,2.27-.11,3.4-.33.08-.01.16-.03.24-.05.09-.02.18-.04.28-.06,4.72-1.06,8.99-4.01,11.56-8.5l49.23-86.13c4.83-8.45,1.81-19.17-6.74-23.95Z"/>
        <path class="cls-1" d="M223.44,54.29c-8.56-4.83-19.41-1.81-24.24,6.74l-49.22,87.18c-4.83,8.56-1.81,19.41,6.74,24.24,2.76,1.56,5.77,2.3,8.73,2.3,6.21,0,12.24-3.26,15.51-9.05l49.23-87.18c4.83-8.56,1.81-19.41-6.74-24.24Z"/>
        <path class="cls-1" d="M377.87,148.21l-49.16-87.07c-1.54-2.78-3.84-5.18-6.81-6.86-8.56-4.83-19.41-1.81-24.24,6.74l-49.23,87.18c-4.83,8.56-1.81,19.41,6.74,24.24,2.76,1.56,5.77,2.3,8.73,2.3,6.21,0,12.24-3.26,15.51-9.05l33.73-59.74,33.73,59.74c3.27,5.79,9.3,9.05,15.51,9.05,2.96,0,5.97-.74,8.73-2.3,8.56-4.83,11.58-15.68,6.74-24.24Z"/>
      </g>
      <g>
        <polygon class="cls-2" points="85.21 213.34 95.52 213.34 95.52 211.42 85.21 211.42 85.21 205.01 96.87 205.01 96.87 203.04 83.04 203.04 83.04 222.51 96.98 222.51 96.98 220.53 85.21 220.53 85.21 213.34"/>
        <path class="cls-2" d="M132.22,215.71c0,1.66.11,3.47.2,4.65-.56-.99-1.44-2.45-2.31-3.7l-9.59-13.63h-2.6v19.47h2.17l-.03-13.04c0-1.33-.11-3.08-.17-4.26.57.99,1.44,2.43,2.26,3.61l9.62,13.69h2.6v-19.47h-2.15v12.67Z"/>
        <polygon class="cls-2" points="158.72 213.34 169.02 213.34 169.02 211.42 158.72 211.42 158.72 205.01 170.37 205.01 170.37 203.04 156.55 203.04 156.55 222.51 170.49 222.51 170.49 220.53 158.72 220.53 158.72 213.34"/>
        <path class="cls-2" d="M205.87,216.98c-.62-2.34-1.66-3.41-2.82-3.87,2.14-.76,3.64-2.4,3.64-4.74,0-3.5-2.12-5.33-6.69-5.33h-8.58v19.47h2.17v-8.46h5.67c2.12,0,3.75.54,4.32,2.85l.82,3.24c.17.68.48,1.64,1.02,2.37h2.23v-.2c-.45-.73-.82-1.55-1.07-2.54l-.71-2.79ZM199.94,212.07h-6.35v-7.08h6.15c3.27,0,4.71,1.02,4.71,3.5s-1.83,3.58-4.51,3.58Z"/>
        <path class="cls-2" d="M237.16,214.47h5.28v4.94c-1.58.85-3.5,1.41-5.78,1.41-4.26,0-7.62-2.6-7.62-8.07s3.53-8.01,7.2-8.01c3.22,0,5.9,1.58,6.15,4.88h2.17c-.23-4.43-3.73-6.86-8.18-6.86-5.05,0-9.57,3.64-9.57,10.02s4.15,10.02,9.73,10.02c3.3,0,6.07-.96,8.07-2.37v-7.87h-7.45v1.92Z"/>
        <rect class="cls-2" x="265.92" y="203.04" width="2.17" height="19.47"/>
        <path class="cls-2" d="M298.68,203.04h-2.71l-7.93,19.47h2.29l2.23-5.62h9.65l2.31,5.62h2.37l-8.21-19.47ZM293.34,214.95l1.81-4.54c.85-2.09,1.75-4.43,2.2-5.59.45,1.18,1.33,3.5,2.2,5.61l1.86,4.52h-8.07Z"/>
      </g>
    </g>
  </g>
</svg>